<svg xmlns="http://www.w3.org/2000/svg" xmlns:v="https://vecta.io/nano" viewBox="0 0 761.4 761.4"><path d="M466 750.5l-90.2-122.6a26.6 26.6 0 0 0-39.3-3.9L223.7 726.2c-18.6 16.8-48 1-44.2-23.7L202.4 552c2.4-15.6-9.3-29.8-25-30.6l-152-7.4c-25-1.2-34.7-33.2-14.5-48l122.6-90.2a26.6 26.6 0 0 0 3.9-39.3L35.2 223.7c-16.8-18.6-1-48 23.7-44.2l150.5 22.9c15.6 2.4 29.8-9.3 30.6-25l7.4-152c1.2-25 33.2-34.7 48-14.5l90.2 122.6a26.6 26.6 0 0 0 39.3 3.9L537.7 35.2c18.6-16.8 48-1 44.2 23.7L559 209.4c-2.4 15.6 9.3 29.8 25 30.6l152 7.4c25 1.2 34.7 33.2 14.5 48l-122.6 90.2a26.6 26.6 0 0 0-3.9 39.3l102.2 112.8c16.8 18.6 1 48-23.7 44.2L552 559c-15.6-2.4-29.8 9.3-30.6 25L514 736c-1.2 25.1-33.1 34.7-48 14.5z" fill="#ff1f7b"></path></svg>